<?xml version="1.0" encoding="utf-8"?>
<!-- Generator: Adobe Illustrator 24.3.0, SVG Export Plug-In . SVG Version: 6.00 Build 0)  -->
<svg version="1.1" xmlns="http://www.w3.org/2000/svg" xmlns:xlink="http://www.w3.org/1999/xlink" x="0px" y="0px"
	 viewBox="0 0 200 200" style="enable-background:new 0 0 200 200;" xml:space="preserve">
<style type="text/css">
	.st0{fill:#FFDB1C;}
	.st1{fill:#252525;}
	.st2{display:none;}
	.st3{display:inline;}
	.st4{font-family:'MyriadPro-Regular';}
	.st5{font-size:12px;}
</style>
<g id="Layer_1">
	<ellipse transform="matrix(0.7071 -0.7071 0.7071 0.7071 -41.403 99.9924)" class="st0" cx="100" cy="100" rx="100" ry="100"/>
	<path class="st1" d="M151,55.9c-4-1.8-9.2-0.2-10,5.1c-4,26.2-6.8,78.1-51.8,70.2c-34.1-6-25.7-40.3-14.3-61.9
		c4-7.6,11-17.7,11-17.7c2.4-4.7-0.4-9.8-5.3-11.1c-3.6-0.9-6.8,0.2-12.8,6.4c-45.5,57.1-19.8,117.3,42.4,104.7
		c0.7-0.1,0.6,0.8,0.6,0.8c-0.9,7.7,8.5,7.6,8.5,7.6c6.6,0.8,14.2-12.4,14.2-12.4s21.2-28.9,24.2-74.6C158.3,63.3,155,57.8,151,55.9
		z"/>
</g>
<g id="nyt_x5F_exporter_x5F_info" class="st2">
	<text transform="matrix(1 0 0 1 0 -1.220703e-04)" class="st3"><tspan x="0" y="0" class="st4 st5">&lt;nyt_prefs&gt;</tspan><tspan x="0" y="14.4" class="st4 st5">  &lt;nyt_prefix/&gt;</tspan><tspan x="0" y="28.8" class="st4 st5">  &lt;nyt_suffix/&gt;</tspan><tspan x="0" y="43.2" class="st4 st5">  &lt;nyt_base_path&gt;~/Desktop&lt;/nyt_base_path&gt;</tspan><tspan x="0" y="57.6" class="st4 st5">  &lt;nyt_scaling&gt;100%&lt;/nyt_scaling&gt;</tspan><tspan x="0" y="72" class="st4 st5">  &lt;nyt_transparency&gt;true&lt;/nyt_transparency&gt;</tspan><tspan x="0" y="86.4" class="st4 st5">  &lt;nyt_format&gt;PNG 24&lt;/nyt_format&gt;</tspan><tspan x="0" y="100.8" class="st4 st5">  &lt;nyt_export_code&gt;artboards&lt;/nyt_export_code&gt;</tspan><tspan x="0" y="115.2" class="st4 st5">&lt;/nyt_prefs&gt;</tspan></text>
</g>
</svg>
